<?xml version="1.0" encoding="utf-8"?>
<!-- Generator: Adobe Illustrator 23.0.3, SVG Export Plug-In . SVG Version: 6.00 Build 0)  -->
<svg version="1.1" id="Capa_1" xmlns="http://www.w3.org/2000/svg" xmlns:xlink="http://www.w3.org/1999/xlink" x="0px" y="0px"
	 viewBox="0 0 1200 1200" enable-background="new 0 0 1200 1200" xml:space="preserve">
<g>
	<path fill="#C4E0E5" d="M776.417,334.571c-37.08,10.655-72.782,20.913-109.591,31.49c-2.563-5.164-5.293-9.482-6.944-14.179
		c-11.972-34.068-16.871-69.428-17.429-105.32c-0.405-26.031-0.292-52.093,6.53-77.686c6.357-23.845,18.234-43.983,37.269-59.559
		c24.647-20.167,52.791-33.393,84.035-39.562c23.572-4.655,36.648,2.736,45.671,24.981c4.264,10.511,6.213,21.579,5.199,32.826
		c-1.268,14.067-2.791,28.169-5.303,42.057C805.91,224.589,791.029,278.378,776.417,334.571z M636.697,127.719
		c-36.122-14.401-73.016-19.011-111.32-9.653c-18.288,4.468-35.52,10.658-50.408,22.524c-11.674,9.304-18.34,21.165-19.622,36.103
		c-1.17,13.639,0.119,26.985,7.191,38.832c6.448,10.801,13.312,21.572,21.458,31.103c30.685,35.901,66.976,65.253,107.216,89.901
		c8.232,5.043,15.973,7.221,25.126,3.088c5.889-2.66,12.11-4.586,17.605-6.627c-2.71-19.288-5.974-36.798-7.499-54.458
		c-4.243-49.144-4.886-98.04,15.357-144.65c0.262-0.603,0.015-1.428,0-2.569C640.243,130.191,638.652,128.498,636.697,127.719z
		 M850.117,313.664c10.03-2.094,15.43-7.706,19-16.592c14.398-35.831,29.268-71.476,43.277-107.458
		c4.287-11.011,7.049-22.752,9.237-34.398c1.483-7.892,1.928-16.376,0.764-24.29c-2.675-18.193-13.257-27.437-31.583-28.541
		c-18.243-1.099-35.224,3.071-49.857,12.925c-2.075,17.96-2.697,35.185-6.245,51.785c-9.777,45.75-20.736,91.249-31.341,136.821
		c-1.656,7.114-4.157,14.061-3.27,22.518C818.041,324.174,833.659,317.099,850.117,313.664z"/>
	<path fill="#BE983B" d="M1077.268,351.483c-10.904,19.866-24.506,34.102-38.958,50.03c-4.411-5.712-7.831-11.097-12.205-15.543
		c-4.616-4.691-10.144-8.486-16.52-13.69c2.988-2.167,4.911-4.456,7.299-5.151C1036.001,361.561,1055.009,355.465,1077.268,351.483z
		"/>
	<path fill="#EBC863" d="M754.165,1012.418c-5.438,2.773-10.191,4.869-14.622,7.505c-53.328,31.726-110.698,51.063-172.601,56.676
		c-103.918,9.423-196.641-18.059-274.979-87.364c-64.917-57.432-99.627-130.814-104.838-217.612
		c-5.13-85.441,20.771-161.494,70.548-230.157c1.285-1.773,3.038-3.207,5.464-5.723c3.625,1.878,7.63,3.458,11.084,5.839
		c9.201,6.341,18.093,13.129,27.273,19.503c2.377,1.651,5.263,2.965,8.089,3.478c3.866,0.701,7.325-0.68,9.36-4.452
		c2.189-4.056,0.225-7.41-2.484-9.922c-3.243-3.008-7.163-5.285-10.791-7.877c-9.649-6.896-19.298-13.792-29.66-21.198
		c10.702-17.697,25.764-29.595,40.82-43.648c3.711,3.612,7.077,6.18,9.546,9.43c6.309,8.307,12.17,16.952,18.312,25.388
		c2.185,3.001,4.473,5.973,7.057,8.625c3.48,3.571,8.409,3.542,12.029,0.379c3.284-2.869,3.853-6.463,1.785-9.981
		c-3.012-5.124-6.511-9.97-9.91-14.859c-7.194-10.347-14.458-20.645-22.042-31.461c19.303-17.193,40.406-29.486,62.599-40.478
		c2.327-8.83,4.408-17.47,6.931-25.98c1.251-4.219,2.719-8.596,5.135-12.201c5.159-7.7,14.45-8.396,21.078-1.727
		c4.138,4.164,7.656,8.946,12.182,14.316c4.966-1.043,10.084-1.5,14.754-3.194c54.046-19.606,107.012-14.269,159.113,7.078
		c34.842,14.276,65.691,35.038,93.24,60.591c67.024,62.168,108.961,139.05,131.575,226.917
		c13.494,52.433,17.596,105.792,11.89,159.673c-3.785,35.742-12.365,70.443-26.987,103.38c-7.55,17.007-16.119,33.567-24.456,50.215
		c-1.981,3.956-4.547,7.734-7.415,11.109c-10.859,12.783-18.209,13.243-31.783,2.491
		C759.736,1015.812,757.77,1014.753,754.165,1012.418z M637.562,768.423c13.521-1.971,29.003-4.027,42.802-11.89
		c3.721-2.12,7.054-5.463,9.623-8.941c4.673-6.325,2.761-15.058-3.761-19.543c-1.81-1.245-3.876-2.162-5.91-3.026
		c-15.961-6.782-50.527,1.431-61.868,14.658c-4.745,5.534-5.173,12.094-1.326,18.493
		C621.333,765.178,627.645,768.268,637.562,768.423z M270.421,777.589c-14.046,1.097-30.388,2.619-43.136,14.857
		c-7.445,7.147-6.458,17.244,2.058,22.797c3.082,2.01,6.479,3.95,10.003,4.796c16.578,3.979,32.619,2.512,47.25-6.779
		c8.313-5.279,12.005-13.916,10.25-23.124c-1.584-8.31-9.76-10.421-17.313-11.752C277.344,777.999,275.089,777.98,270.421,777.589z
		 M427.743,822.303c10.902-0.75,21.856-2.386,31.281-9.246c13.588-9.889,20.261-23.481,20.156-40.054
		c-0.017-2.628-3.736-6.187-6.579-7.482c-1.674-0.763-6.001,1.417-7.351,3.456c-2.375,3.587-3.712,7.985-4.91,12.207
		c-6.923,24.414-38.446,31.505-57.87,12.862c-3.673-3.526-6.193-8.259-9.212-12.46c-2.499-3.478-6.513-5.048-9.511-2.712
		c-2.369,1.845-3.547,6.161-3.796,9.489c-0.199,2.656,1.302,5.813,2.9,8.171C393.516,812.261,408.322,821.023,427.743,822.303z
		 M559.433,659.082c-14.427-0.985-26.925,9.031-28.165,22.569c-1.317,14.381,8.91,26.901,22.698,27.787
		c14.744,0.947,26.88-10.199,27.876-25.604C582.766,669.555,574.196,660.089,559.433,659.082z M285.594,735.091
		c0.738-0.053,1.476-0.123,2.215-0.156c13.079-0.595,24.377-9.67,25.546-20.524c1.073-9.959-7.2-19.891-19.702-23.655
		c-9.461-2.848-19.108,0.25-25.75,8.488c-5.476,6.792-7.81,14.367-3.905,22.685C268.232,730.946,276.187,734.324,285.594,735.091z
		 M782.811,355.443c2.884,2.348,5.025,4.408,7.46,6.025c40.489,26.886,71.705,62.442,96.389,103.9
		c42.059,70.639,61.924,147.782,65.289,229.392c2.222,53.882-4.805,106.889-16.908,159.385c-3.783,16.409-8.015,32.919-9.815,49.312
		c9.042,5.062,14.823,1.783,17.934-4.755c3.138-6.595,5.364-13.984,6.199-21.231c1.179-10.233,5.524-16.823,15.757-18.77
		c10.021-1.907,13.646-8.863,13.121-17.794c-0.716-12.182,2.955-23.494,4.994-35.178c12.861-73.672,9.945-146.804-9.177-219.091
		c-18.384-69.495-50.233-131.931-99.797-184.624c-20.458-21.75-43.037-40.98-69.653-56.373
		C797.524,348.805,788.705,347.677,782.811,355.443z M921.724,339.706c27.976,25.23,49.559,55.548,68.219,88.02
		c36.006,62.657,59.312,129.895,71.969,200.938c0.427,2.394,1.608,4.654,2.921,8.327c1.576-3.153,2.922-4.542,2.765-5.733
		c-1.578-11.945-1.752-23.522,3.76-34.864c2.607-5.363,3.191-12.091-0.832-17.14c-9.201-11.549-7.054-23.777-3.063-36.115
		c2.909-8.996,3.383-17.354-2.164-25.622c-5.578-8.315-8.08-17.205-5.777-27.57c0.829-3.729-0.617-10.185-3.338-12.084
		c-10.156-7.091-10.972-16.448-10.474-27.488c1.018-22.58,0.026-23.381-22.48-31.74c-1.307-0.485-2.294-1.83-4.352-3.542
		c-1.454-9.585-4.415-19.146-16.28-23.078c-6.947-2.303-10.112-8.767-10.609-15.857c-0.754-10.758-6.613-15.898-16.842-17.419
		c-4.341-0.646-8.541-2.231-12.589-3.33c-1.92-3.062-3.889-5.396-4.984-8.086c-5.39-13.246-13.943-20.913-29.287-17.889
		c-6.712,1.322-11.314-2.003-14.933-7.438c-4.965-7.456-11.803-9.762-22.231-7.172C902.286,323.85,912.421,331.316,921.724,339.706z
		 M716.386,1054.516c-3.06,19.476-5.341,38.072,9.767,53.919c17.576-14.658,28.362-44.071,27.013-74.039
		C739.409,1039.247,728.217,1047.265,716.386,1054.516z M991.117,866.73c-7.701,4.327-15.067,8.466-23.06,12.957
		c2.709,20.091-1.782,40.818,12.898,57.951C993.803,922.568,997.39,897.367,991.117,866.73z M1058.139,723.678
		c-1.725,2.852-3.694,5.022-4.432,7.551c-1.644,5.635-1.399,12.188-4.212,17.041c-6.131,10.574-3.53,19.946,1.54,29.444
		c4.145,7.766,8.197,15.828,20.376,17.398C1076.261,772.443,1070.787,743.27,1058.139,723.678z M526.549,1096.46
		c-9.249,0.584-17.796-2.044-26.497,0.564c4.111,18.988,8.159,24.334,24.272,31.664
		C529.301,1118.49,530.492,1108.354,526.549,1096.46z"/>
	<linearGradient id="SVGID_1_" gradientUnits="userSpaceOnUse" x1="320.3008" y1="813.413" x2="1258.6658" y2="555.3802">
		<stop  offset="0" style="stop-color:#F8EF9D"/>
		<stop  offset="0.0929" style="stop-color:#F4E595"/>
		<stop  offset="0.2691" style="stop-color:#EBC981"/>
		<stop  offset="0.51" style="stop-color:#DB9962"/>
		<stop  offset="0.8034" style="stop-color:#C95D3C"/>
		<stop  offset="0.919" style="stop-color:#C0392E"/>
	</linearGradient>
	<path opacity="0.32" fill="url(#SVGID_1_)" d="M754.165,1012.418c-5.438,2.773-10.191,4.869-14.622,7.505
		c-53.328,31.726-110.698,51.063-172.601,56.676c-103.918,9.423-196.641-18.059-274.979-87.364
		c-64.917-57.432-99.627-130.814-104.838-217.612c-5.13-85.441,20.771-161.494,70.548-230.157c1.285-1.773,3.038-3.207,5.464-5.723
		c3.625,1.878,7.63,3.458,11.084,5.839c9.201,6.341,18.093,13.129,27.273,19.503c2.377,1.651,5.263,2.965,8.089,3.478
		c3.866,0.701,7.325-0.68,9.36-4.452c2.189-4.056,0.225-7.41-2.484-9.922c-3.243-3.008-7.163-5.285-10.791-7.877
		c-9.649-6.896-19.298-13.792-29.66-21.198c10.702-17.697,25.764-29.595,40.82-43.648c3.711,3.612,7.077,6.18,9.546,9.43
		c6.309,8.307,12.17,16.952,18.312,25.388c2.185,3.001,4.473,5.973,7.057,8.625c3.48,3.571,8.409,3.542,12.029,0.379
		c3.284-2.869,3.853-6.463,1.785-9.981c-3.012-5.124-6.511-9.97-9.91-14.859c-7.194-10.347-14.458-20.645-22.042-31.461
		c19.303-17.193,40.406-29.486,62.599-40.478c2.327-8.83,4.408-17.47,6.931-25.98c1.251-4.219,2.719-8.596,5.135-12.201
		c5.159-7.7,14.45-8.396,21.078-1.727c4.138,4.164,7.656,8.946,12.182,14.316c4.966-1.043,10.084-1.5,14.754-3.194
		c54.046-19.606,107.012-14.269,159.113,7.078c34.842,14.276,65.691,35.038,93.24,60.591
		c67.024,62.168,108.961,139.05,131.575,226.917c13.494,52.433,17.596,105.792,11.89,159.673
		c-3.785,35.742-12.365,70.443-26.987,103.38c-7.55,17.007-16.119,33.567-24.456,50.215c-1.981,3.956-4.547,7.734-7.415,11.109
		c-10.859,12.783-18.209,13.243-31.783,2.491C759.736,1015.812,757.77,1014.753,754.165,1012.418z M637.562,768.423
		c13.521-1.971,29.003-4.027,42.802-11.89c3.721-2.12,7.054-5.463,9.623-8.941c4.673-6.325,2.761-15.058-3.761-19.543
		c-1.81-1.245-3.876-2.162-5.91-3.026c-15.961-6.782-50.527,1.431-61.868,14.658c-4.745,5.534-5.173,12.094-1.326,18.493
		C621.333,765.178,627.645,768.268,637.562,768.423z M270.421,777.589c-14.046,1.097-30.388,2.619-43.136,14.857
		c-7.445,7.147-6.458,17.244,2.058,22.797c3.082,2.01,6.479,3.95,10.003,4.796c16.578,3.979,32.619,2.512,47.25-6.779
		c8.313-5.279,12.005-13.916,10.25-23.124c-1.584-8.31-9.76-10.421-17.313-11.752C277.344,777.999,275.089,777.98,270.421,777.589z
		 M427.743,822.303c10.902-0.75,21.856-2.386,31.281-9.246c13.588-9.889,20.261-23.481,20.156-40.054
		c-0.017-2.628-3.736-6.187-6.579-7.482c-1.674-0.763-6.001,1.417-7.351,3.456c-2.375,3.587-3.712,7.985-4.91,12.207
		c-6.923,24.414-38.446,31.505-57.87,12.862c-3.673-3.526-6.193-8.259-9.212-12.46c-2.499-3.478-6.513-5.048-9.511-2.712
		c-2.369,1.845-3.547,6.161-3.796,9.489c-0.199,2.656,1.302,5.813,2.9,8.171C393.516,812.261,408.322,821.023,427.743,822.303z
		 M559.433,659.082c-14.427-0.985-26.925,9.031-28.165,22.569c-1.317,14.381,8.91,26.901,22.698,27.787
		c14.744,0.947,26.88-10.199,27.876-25.604C582.766,669.555,574.196,660.089,559.433,659.082z M285.594,735.091
		c0.738-0.053,1.476-0.123,2.215-0.156c13.079-0.595,24.377-9.67,25.546-20.524c1.073-9.959-7.2-19.891-19.702-23.655
		c-9.461-2.848-19.108,0.25-25.75,8.488c-5.476,6.792-7.81,14.367-3.905,22.685C268.232,730.946,276.187,734.324,285.594,735.091z
		 M782.811,355.443c2.884,2.348,5.025,4.408,7.46,6.025c40.489,26.886,71.705,62.442,96.389,103.9
		c42.059,70.639,61.924,147.782,65.289,229.392c2.222,53.882-4.805,106.889-16.908,159.385c-3.783,16.409-8.015,32.919-9.815,49.312
		c9.042,5.062,14.823,1.783,17.934-4.755c3.138-6.595,5.364-13.984,6.199-21.231c1.179-10.233,5.524-16.823,15.757-18.77
		c10.021-1.907,13.646-8.863,13.121-17.794c-0.716-12.182,2.955-23.494,4.994-35.178c12.861-73.672,9.945-146.804-9.177-219.091
		c-18.384-69.495-50.233-131.931-99.797-184.624c-20.458-21.75-43.037-40.98-69.653-56.373
		C797.524,348.805,788.705,347.677,782.811,355.443z M921.724,339.706c27.976,25.23,49.559,55.548,68.219,88.02
		c36.006,62.657,59.312,129.895,71.969,200.938c0.427,2.394,1.608,4.654,2.921,8.327c1.576-3.153,2.922-4.542,2.765-5.733
		c-1.578-11.945-1.752-23.522,3.76-34.864c2.607-5.363,3.191-12.091-0.832-17.14c-9.201-11.549-7.054-23.777-3.063-36.115
		c2.909-8.996,3.383-17.354-2.164-25.622c-5.578-8.315-8.08-17.205-5.777-27.57c0.829-3.729-0.617-10.185-3.338-12.084
		c-10.156-7.091-10.972-16.448-10.474-27.488c1.018-22.58,0.026-23.381-22.48-31.74c-1.307-0.485-2.294-1.83-4.352-3.542
		c-1.454-9.585-4.415-19.146-16.28-23.078c-6.947-2.303-10.112-8.767-10.609-15.857c-0.754-10.758-6.613-15.898-16.842-17.419
		c-4.341-0.646-8.541-2.231-12.589-3.33c-1.92-3.062-3.889-5.396-4.984-8.086c-5.39-13.246-13.943-20.913-29.287-17.889
		c-6.712,1.322-11.314-2.003-14.933-7.438c-4.965-7.456-11.803-9.762-22.231-7.172C902.286,323.85,912.421,331.316,921.724,339.706z
		 M716.386,1054.516c-3.06,19.476-5.341,38.072,9.767,53.919c17.576-14.658,28.362-44.071,27.013-74.039
		C739.409,1039.247,728.217,1047.265,716.386,1054.516z M991.117,866.73c-7.701,4.327-15.067,8.466-23.06,12.957
		c2.709,20.091-1.782,40.818,12.898,57.951C993.803,922.568,997.39,897.367,991.117,866.73z M1058.139,723.678
		c-1.725,2.852-3.694,5.022-4.432,7.551c-1.644,5.635-1.399,12.188-4.212,17.041c-6.131,10.574-3.53,19.946,1.54,29.444
		c4.145,7.766,8.197,15.828,20.376,17.398C1076.261,772.443,1070.787,743.27,1058.139,723.678z M526.549,1096.46
		c-9.249,0.584-17.796-2.044-26.497,0.564c4.111,18.988,8.159,24.334,24.272,31.664
		C529.301,1118.49,530.492,1108.354,526.549,1096.46z"/>
	<path fill="#D089A4" d="M637.562,768.423c-9.917-0.155-16.229-3.245-20.44-10.248c-3.847-6.399-3.419-12.959,1.326-18.493
		c11.341-13.227,45.907-21.44,61.868-14.658c2.035,0.864,4.101,1.781,5.91,3.026c6.522,4.485,8.434,13.218,3.761,19.543
		c-2.569,3.478-5.903,6.821-9.623,8.941C666.565,764.396,651.083,766.452,637.562,768.423z M227.285,792.446
		c-7.445,7.147-6.458,17.244,2.058,22.797c3.082,2.01,6.479,3.95,10.003,4.796c16.578,3.979,32.619,2.512,47.25-6.779
		c8.313-5.279,12.005-13.916,10.25-23.124c-1.584-8.31-9.76-10.421-17.313-11.752c-2.19-0.386-4.444-0.404-9.113-0.796
		C256.375,778.685,240.033,780.208,227.285,792.446z"/>
	<path fill="#303032" d="M141.622,433.588c39.747,25.466,77.939,49.936,117.208,75.096c15.341-15.346,30.999-31.009,46.236-46.251
		c0.506-6.768-3.914-10.219-6.943-14.196c-20.771-27.273-41.634-54.476-62.624-81.58c-6.348-8.197-12.54-16.198-24.397-17.833
		c-7.502-1.034-12.83-7.009-15.973-14.366c-4.077-9.542-2.784-18.828,3.772-24.677c6.236-5.563,19.619-5.644,27.113-0.021
		c5.559,4.17,9.659,9.44,10.056,16.645c0.244,4.428-0.26,8.898-0.442,13.714c14.603,17.901,29.342,35.615,43.683,53.645
		c14.303,17.983,28.208,36.282,42.336,54.505c18.827-11.909,36.308-23.11,53.958-34.038c4.877-3.02,7.075-7.36,8.503-12.533
		c1.58-5.721,2.782-11.644,5.166-17.028c8.929-20.164,22-26.082,43.235-20.074c2.757,0.78,5.44,1.826,7.805,2.629
		c30.348-31.698,36.029-33.824,66.724-24.469c7.66-6.819,15.89-14.144,25.388-22.599c-3.588-3.754-6.811-7.3-10.216-10.661
		c-18.014-17.777-36.807-34.839-53.827-53.519c-9.393-10.309-16.837-22.781-23.366-35.219c-8.905-16.964-10.555-35.353-6.576-54.333
		c3.199-15.263,10.676-27.716,22.444-37.611c12.07-10.149,25.418-18.155,40.588-22.944c39.298-12.408,78.8-15.247,118.695-2.898
		c11.31,3.501,22.65,6.909,34.42,10.495c4.326-3.886,8.194-7.223,11.911-10.721c28.468-26.78,62.466-42.69,100.311-50.974
		c4.338-0.95,8.819-1.489,13.258-1.699c19.579-0.93,34.735,7.064,45.203,23.512c4.348,6.832,7.873,14.186,11.752,21.266
		c6.766,1.117,11.688-2.951,17.215-4.533c12.226-3.499,24.42-6.298,37.348-5.528c29.069,1.73,47.466,18.489,49.4,47.463
		c0.731,10.952-0.821,22.341-3.102,33.158c-7.105,33.697-21.002,65.101-34.098,96.752c-4.21,10.174-9.827,19.877-11.835,31.884
		c12.563,3.193,25.243,5.171,34.668,14.753c1.75,1.779,5.527,2.123,8.382,2.161c17.576,0.239,29.351,9.112,37.214,24.203
		c0.656,1.259,2.018,2.149,2.699,2.848c10.5,4.589,20.627,9.015,32.032,14c21.573-6.281,44.41-12.976,67.279-19.561
		c6.429-1.851,12.865-4.015,19.451-4.906c9.303-1.259,15.399,7.286,11.569,16.166c-2.331,5.404-5.495,10.588-9.044,15.3
		c-10.308,13.683-20.987,27.088-31.547,40.58c-2.736,3.495-5.571,6.913-8.798,10.908c2.486,6.989,5.857,13.682,7.105,20.749
		c1.275,7.221,0.591,14.812,0.522,22.238c-0.044,4.776,1.501,8.502,5.118,11.761c7.202,6.488,9.631,14.868,8.31,24.323
		c-0.957,6.848-0.579,12.953,3.953,18.987c8.785,11.694,8.947,24.972,4.396,38.345c-3.047,8.954-3.459,17.046,2.337,25.386
		c5.495,7.907,4.528,17.376,2.02,25.979c-2.943,10.096-4.576,19.628-3.264,30.472c1.005,8.313-2.315,17.623-5.453,25.822
		c-2.765,7.223-4.616,13.957-3,21.608c0.605,2.865,0.905,6.115,0.184,8.887c-4.16,15.997,0.665,30.883,4.978,45.918
		c2.669,9.302,5.85,18.602,7.104,28.127c1.442,10.958,1.62,22.191,1.113,33.248c-0.224,4.887-2.83,10.045-5.516,14.356
		c-4.627,7.426-13.134,9.689-21.561,6.811c-10.392-3.549-17.691-10.876-23.513-19.753c-3.632-5.539-6.636-11.489-9.694-16.854
		c-6.908-1.133-8.917,3.107-8.93,7.694c-0.037,12.967-2.99,24.613-9.55,36.139c-3.296,5.789-2.164,14.394-2.139,21.722
		c0.072,20.846,1.272,41.709,0.669,62.526c-0.297,10.256-2.708,20.71-5.86,30.53c-1.942,6.053-6.332,11.846-10.962,16.391
		c-7.668,7.527-18.418,6.902-25.913-0.97c-3.52-3.697-6.353-8.272-8.618-12.882c-2.596-5.283-4.218-11.045-6.722-17.845
		c-7.909,2.075-15.492,4.065-24.173,6.343c-5.372,26.125-16.801,46.651-48.998,45.166c-6.264,13.219-10.037,27.74-23.383,36.777
		c-13.861,9.387-28.654,5.564-43.634,5.297c-5.426,7.315-9.565,15.51-16.047,20.868c-6.014,4.971-14.532,6.913-23.219,10.751
		c-1.731,7.527-3.078,16.403-5.871,24.799c-3.976,11.953-8.692,23.694-13.754,35.236c-2.046,4.666-5.41,8.963-8.913,12.742
		c-11.559,12.469-25.979,11.668-36.165-1.636c-6.56-8.567-9.521-18.494-10.654-29.004c-0.788-7.31-1.067-14.675-1.645-23.056
		c-25.042,7.425-48.761,15.767-73.117,21.313c-24.467,5.572-49.567,8.362-75.15,12.493c-0.81,7.918-1.097,15.334-2.447,22.552
		c-1.218,6.513-2.751,13.227-5.657,19.105c-5.014,10.143-14.617,12.702-24.493,7.201c-14.228-7.924-23.699-20.237-30.341-34.78
		c-2.449-5.361-3.927-11.166-6.335-18.188c-8.227-1.682-16.886-3.414-25.529-5.224c-90.277-18.907-165.565-62.494-220.38-137.547
		c-53.854-73.739-73.775-156.582-61.562-247.244c8.127-60.33,30.766-114.738,65.023-164.656c2.942-4.287,5.779-8.648,8.606-13.012
		c0.388-0.599,0.438-1.416,0.906-3.039c-3.062-2.549-6.184-5.696-9.807-8.078c-27.387-18.009-54.864-35.881-82.336-53.76
		c-3.744-2.436-7.652-4.618-11.424-7.012c-5.883-3.733-11.685-6.091-18.871-2.796c-3.176,1.456-7.326,1.636-10.896,1.219
		c-8.768-1.024-15.632-5.426-18.187-14.24c-2.491-8.594,0.173-16.307,6.562-22.414c9.435-9.019,31.329-5.259,37.036,6.405
		C140.035,426.726,140.865,431.186,141.622,433.588z M754.165,1012.418c3.606,2.335,5.572,3.393,7.295,4.758
		c13.574,10.753,20.924,10.292,31.783-2.491c2.867-3.375,5.434-7.154,7.415-11.109c8.337-16.647,16.906-33.208,24.456-50.215
		c14.622-32.936,23.202-67.638,26.987-103.38c5.706-53.881,1.604-107.241-11.89-159.673
		c-22.613-87.867-64.551-164.749-131.575-226.917c-27.549-25.553-58.398-46.316-93.24-60.591
		c-52.101-21.347-105.068-26.684-159.113-7.078c-4.669,1.694-9.787,2.151-14.754,3.194c-4.526-5.37-8.044-10.152-12.182-14.316
		c-6.628-6.669-15.919-5.973-21.078,1.727c-2.415,3.605-3.884,7.982-5.135,12.201c-2.523,8.509-4.604,17.15-6.931,25.98
		c-22.193,10.992-43.296,23.285-62.599,40.478c7.584,10.816,14.848,21.114,22.042,31.461c3.399,4.889,6.898,9.734,9.91,14.859
		c2.068,3.518,1.499,7.112-1.785,9.981c-3.62,3.162-8.549,3.192-12.029-0.379c-2.584-2.651-4.872-5.624-7.057-8.625
		c-6.142-8.436-12.003-17.081-18.312-25.388c-2.469-3.25-5.835-5.818-9.546-9.43c-15.056,14.054-30.119,25.952-40.82,43.648
		c10.362,7.406,20.011,14.301,29.66,21.198c3.628,2.593,7.548,4.87,10.791,7.877c2.709,2.512,4.673,5.866,2.484,9.922
		c-2.035,3.771-5.494,5.153-9.36,4.452c-2.826-0.512-5.712-1.827-8.089-3.478c-9.18-6.373-18.072-13.162-27.273-19.503
		c-3.454-2.38-7.459-3.961-11.084-5.839c-2.426,2.516-4.178,3.95-5.464,5.723c-49.777,68.663-75.677,144.716-70.548,230.157
		c5.211,86.798,39.921,160.181,104.838,217.612c78.338,69.306,171.061,96.787,274.979,87.364
		c61.903-5.613,119.273-24.95,172.601-56.676C743.974,1017.287,748.726,1015.191,754.165,1012.418z M776.417,334.571
		c14.612-56.193,29.493-109.982,39.438-164.952c2.513-13.888,4.035-27.99,5.303-42.057c1.014-11.246-0.935-22.315-5.199-32.826
		c-9.024-22.245-22.099-29.636-45.671-24.981c-31.244,6.17-59.388,19.395-84.035,39.562c-19.035,15.575-30.912,35.713-37.269,59.559
		c-6.822,25.592-6.935,51.655-6.53,77.686c0.558,35.892,5.457,71.252,17.429,105.32c1.651,4.697,4.381,9.015,6.944,14.179
		C703.636,355.484,739.337,345.226,776.417,334.571z M641.802,131.313c-1.559-1.122-3.15-2.815-5.105-3.594
		c-36.122-14.401-73.016-19.011-111.32-9.653c-18.288,4.468-35.52,10.658-50.408,22.524c-11.674,9.304-18.34,21.165-19.622,36.103
		c-1.17,13.639,0.119,26.985,7.191,38.832c6.448,10.801,13.312,21.572,21.458,31.103c30.685,35.901,66.976,65.253,107.216,89.901
		c8.232,5.043,15.973,7.221,25.126,3.088c5.889-2.66,12.11-4.586,17.605-6.627c-2.71-19.288-5.974-36.798-7.499-54.458
		c-4.243-49.144-4.886-98.04,15.357-144.65C642.063,133.279,641.817,132.454,641.802,131.313z M804.605,345.641
		c-7.081,3.164-15.9,2.036-21.793,9.802c2.884,2.348,5.025,4.408,7.46,6.025c40.489,26.886,71.705,62.442,96.389,103.9
		c42.059,70.639,61.924,147.782,65.289,229.392c2.222,53.882-4.805,106.889-16.908,159.385c-3.783,16.409-8.015,32.919-9.815,49.312
		c9.042,5.062,14.823,1.783,17.934-4.755c3.138-6.595,5.364-13.984,6.199-21.231c1.179-10.233,5.524-16.823,15.757-18.77
		c10.021-1.907,13.646-8.863,13.121-17.794c-0.716-12.182,2.955-23.494,4.994-35.178c12.861-73.672,9.945-146.804-9.177-219.091
		c-18.384-69.495-50.233-131.931-99.797-184.624C853.799,380.264,831.22,361.033,804.605,345.641z M800.099,326.433
		c17.942-2.26,33.56-9.334,50.017-12.769c10.03-2.094,15.43-7.706,19-16.592c14.398-35.831,29.268-71.476,43.277-107.458
		c4.287-11.011,7.049-22.752,9.237-34.398c1.483-7.892,1.928-16.376,0.764-24.29c-2.675-18.193-13.257-27.437-31.583-28.541
		c-18.243-1.099-35.224,3.071-49.857,12.925c-2.075,17.96-2.697,35.185-6.245,51.785c-9.777,45.75-20.736,91.249-31.341,136.821
		C801.713,311.03,799.212,317.977,800.099,326.433z M891.122,314.822c11.163,9.028,21.299,16.494,30.601,24.883
		c27.976,25.23,49.559,55.548,68.219,88.02c36.006,62.657,59.312,129.895,71.969,200.938c0.427,2.394,1.608,4.654,2.921,8.327
		c1.576-3.153,2.922-4.542,2.765-5.733c-1.578-11.945-1.752-23.522,3.76-34.864c2.607-5.363,3.191-12.091-0.832-17.14
		c-9.201-11.549-7.054-23.777-3.063-36.115c2.909-8.996,3.383-17.354-2.164-25.622c-5.578-8.315-8.08-17.205-5.777-27.57
		c0.829-3.729-0.617-10.185-3.338-12.084c-10.156-7.091-10.972-16.448-10.474-27.488c1.018-22.58,0.026-23.381-22.48-31.74
		c-1.307-0.485-2.294-1.83-4.352-3.542c-1.454-9.585-4.415-19.146-16.28-23.078c-6.947-2.303-10.112-8.767-10.609-15.857
		c-0.754-10.758-6.613-15.898-16.842-17.419c-4.341-0.646-8.541-2.231-12.589-3.33c-1.92-3.062-3.889-5.396-4.984-8.086
		c-5.39-13.246-13.943-20.913-29.287-17.889c-6.712,1.322-11.314-2.003-14.933-7.438
		C908.389,314.538,901.551,312.231,891.122,314.822z M753.167,1034.395c-13.758,4.852-24.949,12.869-36.78,20.12
		c-3.06,19.476-5.341,38.072,9.767,53.919C743.729,1093.776,754.515,1064.363,753.167,1034.395z M1077.268,351.483
		c-22.259,3.982-41.267,10.078-60.385,15.646c-2.387,0.695-4.31,2.984-7.299,5.151c6.376,5.204,11.904,8.999,16.52,13.69
		c4.375,4.446,7.794,9.831,12.205,15.543C1052.762,385.585,1066.364,371.349,1077.268,351.483z M980.955,937.638
		c12.848-15.07,16.435-40.271,10.162-70.908c-7.701,4.327-15.067,8.466-23.06,12.957
		C970.766,899.777,966.275,920.505,980.955,937.638z M1071.41,795.112c4.851-22.669-0.624-51.842-13.271-71.434
		c-1.725,2.852-3.694,5.022-4.432,7.551c-1.644,5.635-1.399,12.188-4.212,17.041c-6.131,10.574-3.53,19.946,1.54,29.444
		C1055.179,785.48,1059.231,793.542,1071.41,795.112z M524.324,1128.689c4.976-10.199,6.168-20.335,2.225-32.229
		c-9.249,0.584-17.796-2.044-26.497,0.564C504.163,1116.013,508.211,1121.359,524.324,1128.689z M459.024,813.057
		c13.588-9.889,20.261-23.481,20.156-40.054c-0.017-2.628-3.736-6.187-6.579-7.482c-1.674-0.763-6.001,1.417-7.351,3.456
		c-2.375,3.587-3.712,7.985-4.91,12.207c-6.923,24.414-38.446,31.505-57.87,12.862c-3.673-3.526-6.193-8.259-9.212-12.46
		c-2.499-3.478-6.513-5.048-9.511-2.712c-2.369,1.845-3.547,6.161-3.796,9.489c-0.199,2.656,1.302,5.813,2.9,8.171
		c10.664,15.729,25.47,24.491,44.89,25.771C438.645,821.552,449.598,819.917,459.024,813.057z M531.268,681.651
		c-1.317,14.381,8.91,26.901,22.698,27.787c14.744,0.947,26.88-10.199,27.876-25.604c0.924-14.278-7.646-23.744-22.409-24.751
		C545.007,658.097,532.508,668.112,531.268,681.651z M287.81,734.935c13.079-0.595,24.377-9.67,25.546-20.524
		c1.073-9.959-7.2-19.891-19.702-23.655c-9.461-2.848-19.108,0.25-25.75,8.488c-5.476,6.792-7.81,14.367-3.905,22.685
		c4.233,9.017,12.188,12.394,21.597,13.159C286.333,735.038,287.07,734.969,287.81,734.935z"/>
</g>
</svg>
